<?xml version="1.0" standalone="no"?>
<!DOCTYPE svg PUBLIC "-//W3C//DTD SVG 20010904//EN"
 "http://www.w3.org/TR/2001/REC-SVG-20010904/DTD/svg10.dtd">
<svg version="1.0" xmlns="http://www.w3.org/2000/svg"
 width="399.000000pt" height="76.000000pt" viewBox="0 0 399.000000 76.000000"
 preserveAspectRatio="xMidYMid meet">

<g transform="translate(0.000000,76.000000) scale(0.100000,-0.100000)"
fill="#000000" stroke="none">
<path d="M1610 445 l0 -235 45 0 45 0 0 235 0 235 -45 0 -45 0 0 -235z"/>
<path d="M2714 666 c-34 -15 -64 -68 -64 -113 0 -17 -8 -33 -20 -41 -11 -7
-20 -23 -20 -37 0 -18 5 -25 20 -25 19 0 20 -7 20 -120 l0 -120 45 0 45 0 0
120 0 120 65 0 65 0 0 -120 0 -120 40 0 40 0 0 120 0 120 55 0 55 0 0 -120 0
-120 40 0 40 0 0 160 0 160 -95 0 c-94 0 -95 0 -95 25 0 40 63 59 124 36 22
-9 26 -7 35 21 13 36 8 42 -53 59 -97 27 -186 -21 -186 -100 l0 -41 -65 0
c-61 0 -65 1 -65 23 0 32 18 47 57 47 31 0 33 2 33 34 0 26 -5 35 -22 40 -34
9 -60 7 -94 -8z"/>
<path d="M277 656 c-50 -18 -67 -34 -89 -82 -37 -85 6 -150 119 -179 88 -23
103 -32 103 -55 0 -51 -94 -67 -137 -24 -26 26 -26 26 -64 8 -22 -9 -39 -23
-39 -29 0 -22 68 -74 112 -86 32 -9 57 -9 95 -1 87 18 133 66 133 140 0 60
-28 88 -113 113 -95 28 -127 45 -127 69 0 45 88 66 131 31 23 -18 24 -18 56 3
18 11 33 25 33 29 0 16 -54 57 -89 67 -47 13 -78 12 -124 -4z"/>
<path d="M577 652 c-22 -24 -21 -45 3 -67 45 -40 105 20 65 65 -23 25 -47 25
-68 2z"/>
<path d="M2280 659 c-51 -15 -96 -53 -127 -107 -24 -39 -28 -58 -28 -118 0
-61 4 -77 30 -120 71 -115 202 -145 312 -71 111 75 133 231 48 343 -49 64
-155 97 -235 73z m121 -104 c116 -60 73 -255 -56 -255 -65 0 -125 63 -125 133
0 101 96 166 181 122z"/>
<path d="M1375 533 c-11 -3 -26 -10 -34 -17 -11 -8 -15 -8 -18 2 -3 7 -21 12
-44 12 l-39 0 0 -225 0 -225 45 0 45 0 0 74 0 74 43 -16 c103 -37 206 42 207
158 0 44 -36 118 -71 143 -27 19 -98 30 -134 20z m90 -108 c52 -51 16 -145
-55 -145 -73 0 -111 104 -54 149 36 28 79 27 109 -4z"/>
<path d="M1831 518 c-136 -73 -112 -264 38 -309 44 -13 119 -5 147 15 15 12
16 18 7 39 -11 24 -15 25 -66 20 -42 -4 -62 -1 -86 13 -17 10 -31 22 -31 26 0
4 49 8 109 8 123 0 123 0 110 74 -19 109 -132 165 -228 114z m127 -85 l27 -28
-43 -3 c-23 -2 -59 -2 -80 0 l-37 3 27 28 c16 15 38 27 53 27 15 0 37 -12 53
-27z"/>
<path d="M3270 518 c-33 -17 -51 -35 -67 -68 -84 -165 102 -323 247 -210 l25
19 -27 27 c-26 26 -28 27 -52 11 -60 -40 -126 -1 -126 73 0 72 66 113 123 75
20 -13 25 -12 51 9 35 27 29 41 -28 67 -54 25 -92 24 -146 -3z"/>
<path d="M3601 518 c-136 -73 -112 -264 38 -309 44 -13 119 -5 147 15 15 12
16 18 7 39 -11 24 -15 25 -66 20 -42 -4 -62 -1 -86 13 -17 10 -31 22 -31 26 0
4 49 8 109 8 123 0 123 0 110 74 -19 109 -132 165 -228 114z m127 -85 l27 -28
-43 -3 c-23 -2 -59 -2 -80 0 l-37 3 27 28 c16 15 38 27 53 27 15 0 37 -12 53
-27z"/>
<path d="M570 370 l0 -160 40 0 40 0 0 160 0 160 -40 0 -40 0 0 -160z"/>
<path d="M720 370 l0 -160 45 0 45 0 0 104 c0 111 9 136 50 136 37 0 50 -38
50 -142 l0 -98 45 0 45 0 0 109 c0 117 7 136 52 129 35 -5 48 -43 48 -145 l0
-93 40 0 40 0 0 125 c0 124 0 125 -29 157 -26 29 -36 33 -79 33 -39 0 -56 -5
-75 -23 -20 -19 -26 -20 -30 -9 -10 27 -74 41 -120 27 -30 -9 -42 -9 -45 -1
-2 6 -21 11 -43 11 l-39 0 0 -160z"/>
</g>
</svg>
