<?xml version="1.0" encoding="UTF-8" standalone="no"?>
<svg
   xmlns:dc="http://purl.org/dc/elements/1.1/"
   xmlns:cc="http://creativecommons.org/ns#"
   xmlns:rdf="http://www.w3.org/1999/02/22-rdf-syntax-ns#"
   xmlns:svg="http://www.w3.org/2000/svg"
   xmlns="http://www.w3.org/2000/svg"
   xmlns:sodipodi="http://sodipodi.sourceforge.net/DTD/sodipodi-0.dtd"
   xmlns:inkscape="http://www.inkscape.org/namespaces/inkscape"
   version="1.1"
   viewBox="0 0 813.31 221.87019"
   xml:space="preserve"
   id="svg16"
   sodipodi:docname="logo.svg"
   width="813.31"
   height="221.87019"
   inkscape:version="1.0.1 (c497b03c, 2020-09-10)"><metadata
   id="metadata22"><rdf:RDF><cc:Work
       rdf:about=""><dc:format>image/svg+xml</dc:format><dc:type
         rdf:resource="http://purl.org/dc/dcmitype/StillImage" /><dc:title></dc:title></cc:Work></rdf:RDF></metadata><defs
   id="defs20" /><sodipodi:namedview
   pagecolor="#ffffff"
   bordercolor="#666666"
   borderopacity="1"
   objecttolerance="10"
   gridtolerance="10"
   guidetolerance="10"
   inkscape:pageopacity="0"
   inkscape:pageshadow="2"
   inkscape:window-width="715"
   inkscape:window-height="480"
   id="namedview18"
   showgrid="false"
   fit-margin-top="0"
   fit-margin-left="0"
   fit-margin-right="0"
   fit-margin-bottom="0"
   inkscape:zoom="0.68055556"
   inkscape:cx="402.34001"
   inkscape:cy="138.86019"
   inkscape:window-x="0"
   inkscape:window-y="25"
   inkscape:window-maximized="0"
   inkscape:current-layer="svg16"
   fill="#fff" />
    <style
   type="text/css"
   id="style10">
        .st0{display:none}
    </style>
    <path
   d="M 1.0306508e-5,124.28019 C -0.01998969,86.370189 29.07001,59.220189 68.24001,59.190189 c 21.74,-0.01 39.9,7.88 51.76,22.25 l -18.68,17.26 c -8.45,-9.7 -19.06,-14.72 -31.63,-14.72 -23.54,0.01 -40.24,16.560001 -40.23,40.270001 0.01,23.71 16.74,40.24 40.27,40.23 12.58,-0.01 23.18,-5.05 31.62,-14.93 l 18.7,17.24 c -11.85,14.56 -29.99,22.48 -51.92,22.49 -38.98,0.02 -68.09999969,-27.09 -68.129999693492,-65 z M 179.53001,150.40019 l -14.55,0.01 0.02,36.66 -28.03,0.02 -0.06,-96.670001 28.03,-0.02 0.02,37.550001 15.09,-0.01 26.21,-37.570001 29.83,-0.02 -33.75,46.380001 36.15,50.29 -33.06,0.02 z m 177.88,-11.79 c 0.02,30.37 -20.99,49.79 -48.13,49.8 -12.04,0.01 -21.92,-3.76 -29.12,-11.66 l 0.03,45.1 -28.03,0.02 -0.08,-131.530001 26.77,-0.02 0.01,11.140001 c 7,-8.450001 17.42,-12.590001 30.36,-12.600001 27.14,-0.01 48.18,19.380001 48.19,49.750001 z m -28.39,0.02 c -0.01,-16.71 -10.62,-26.77 -24.63,-26.76 -14.02,0.01 -24.61,10.08 -24.6,26.79 0.01,16.71 10.62,26.77 24.63,26.76 14.02,-0.01 24.61,-10.08 24.6,-26.79 z m 141.42,7.82 -73.13,0.04 c 2.7,12.04 12.95,19.4 27.68,19.39 10.24,-0.01 17.61,-3.07 24.25,-9.36 l 14.92,16.16 c -8.98,10.25 -22.45,15.65 -39.88,15.66 -33.42,0.02 -55.18,-20.99 -55.19,-49.74 -0.02,-28.93 22.07,-49.790001 51.54,-49.810001 28.39,-0.02 50.32,19.020001 50.34,50.100001 0.01,2.17 -0.35,5.22 -0.53,7.56 z m -73.5,-16.31 47.62,-0.03 c -1.98,-12.22 -11.15,-20.12 -23.73,-20.11 -12.76,0.01 -21.92,7.74 -23.89,20.14 z m 191.7,-40.010001 0.06,96.670001 -28.03,0.02 -0.04,-73.67 -40.25,0.02 0.04,73.67 -27.85,0.02 -0.06,-96.670001 z m 69.58,59.980001 -14.55,0.01 0.02,36.66 -28.03,0.02 -0.06,-96.670001 28.03,-0.02 0.02,37.550001 15.09,-0.01 26.21,-37.570001 29.83,-0.02 -33.75,46.380001 36.15,50.29 -33.06,0.02 z m 155.06,-18.6 0.03,55.16 -26.23,0.02 -0.01,-12.04 c -5.21,8.81 -15.26,13.49 -29.46,13.49 -22.64,0.01 -36.12,-12.56 -36.13,-29.27 -0.01,-17.07 12.02,-28.94 41.49,-28.96 l 22.28,-0.01 c -0.01,-12.04 -7.2,-19.04 -22.29,-19.03 -10.24,0.01 -20.84,3.43 -27.85,9 l -10.07,-19.58 c 10.6,-7.550001 26.23,-11.700001 41.68,-11.710001 29.47,-0.01 46.55,13.640001 46.56,42.930001 z m -28.01,24.63 -0.01,-9.88 -19.23,0.01 c -13.12,0.01 -17.25,4.86 -17.24,11.33 0,7.01 5.94,11.68 15.82,11.67 9.35,-0.01 17.43,-4.32 20.66,-13.13 z m -335.12,-89.300001 a 2.544,2.544 0 0 1 -2.53,-2.55 c 0,-0.67 0.27,-1.31 0.74,-1.78 l 36.18,-36.16 c 2.23,-2.25 3.43,-5.33 3.3,-8.5 -0.29,-6.94 -5.87,-12.4999997 -12.81,-12.7599997 -3.16,-0.12 -6.22,1.06 -8.48,3.26 l -38.7,38.7399997 a 6.829,6.829 0 0 0 -1.96,5.08 7.89,7.89 0 0 0 2.35,5.35 7.36,7.36 0 0 0 10.39,0.39 l 38.69,-38.74 c 0.99,-0.99 0.99,-2.6 0,-3.59 -0.99,-0.99 -2.6,-0.99 -3.59,0 l -35.31,35.31 c -0.99,0.99 -2.6,0.99 -3.59,0 -0.99,-0.99 -0.99,-2.6 0,-3.59 l 35.31,-35.31 c 2.98,-2.9799997 7.81,-2.9799997 10.78,0 2.98,2.98 2.98,7.81 0,10.78 l -38.7,38.69 c -4.96,4.73 -12.82,4.55 -17.56,-0.39 a 12.926,12.926 0 0 1 -3.81,-8.79 c -0.12,-3.28 1.12,-6.46 3.44,-8.78 l 38.67,-38.6999997 c 3.24,-3.22 7.67,-4.95000003 12.23,-4.79000003 9.62,0.36 17.34,8.08000003 17.7,17.69999973 0.16,4.56 -1.57,8.99 -4.79,12.23 l -36.16,36.16 c -0.48,0.48 -1.12,0.75 -1.79,0.74 z"
   id="path12" fill="#fff"/>
    <path
   class="st0"
   d="m 27.03001,336.41019 9.87,-21.93 c 10.61,7.72 26.42,13.1 41.52,13.09 17.25,-0.01 24.25,-5.76 24.25,-13.49 -0.01,-23.54 -73.14,-7.32 -73.17,-54.04 -0.01,-21.38 17.23,-39.18 52.98,-39.2 15.81,-0.01 31.99,3.75 43.67,11.11 l -8.97,22.11 c -11.68,-6.64 -23.72,-9.87 -34.87,-9.86 -17.25,0.01 -23.89,6.48 -23.89,14.39 0.01,23.18 73.14,7.14 73.17,53.32 0.01,21.02 -17.41,39 -53.34,39.03 -19.94,0.01 -40.07,-5.91 -51.22,-14.53 z m 164.04,-25.61 -13.47,13.3 0.02,24.62 -28.03,0.02 -0.08,-133.33 28.03,-0.02 0.05,75.47 40.95,-38.84 33.42,-0.02 -40.22,40.99 43.88,55.68 -33.96,0.02 z m 136.35,-60.28 0.02,25.87 c -2.34,-0.18 -4.13,-0.36 -6.29,-0.36 -15.45,0.01 -25.69,8.46 -25.68,26.97 l 0.03,45.64 -28.03,0.02 -0.06,-96.67 26.77,-0.02 0.01,12.76 c 6.82,-9.34 18.31,-14.2 33.23,-14.21 z m 110.01,57.61 -73.13,0.04 c 2.7,12.04 12.95,19.4 27.68,19.39 10.24,-0.01 17.61,-3.07 24.25,-9.36 l 14.92,16.16 c -8.98,10.25 -22.45,15.65 -39.88,15.66 -33.42,0.02 -55.18,-20.99 -55.19,-49.74 -0.02,-28.93 22.07,-49.79 51.54,-49.8 28.39,-0.02 50.32,19.02 50.34,50.1 0,2.16 -0.36,5.21 -0.53,7.55 z m -73.51,-16.31 47.62,-0.03 c -1.98,-12.22 -11.15,-20.12 -23.73,-20.11 -12.76,0.01 -21.92,7.74 -23.89,20.14 z m 198.03,8.33 c 0.02,30.37 -20.99,49.79 -48.13,49.8 -12.04,0.01 -21.92,-3.76 -29.12,-11.66 l 0.03,45.1 -28.03,0.02 -0.08,-131.53 26.77,-0.02 0.01,11.14 c 7,-8.45 17.42,-12.59 30.36,-12.6 27.13,-0.01 48.17,19.38 48.19,49.75 z m -28.39,0.01 c -0.01,-16.71 -10.62,-26.77 -24.63,-26.76 -14.01,0.01 -24.61,10.08 -24.6,26.79 0.01,16.71 10.62,26.77 24.63,26.76 14.01,-0.01 24.61,-10.07 24.6,-26.79 z m 88.59,10.37 -13.47,13.31 0.01,24.62 -28.03,0.02 -0.08,-133.33 28.03,-0.02 0.05,75.47 40.94,-38.84 33.42,-0.02 -40.22,40.99 43.88,55.68 -33.96,0.02 z m 160.81,-17.35 0.03,55.17 -26.23,0.02 -0.01,-12.04 c -5.21,8.81 -15.26,13.49 -29.46,13.49 -22.64,0.01 -36.12,-12.56 -36.13,-29.27 -0.01,-17.07 12.02,-28.94 41.49,-28.96 l 22.28,-0.01 c -0.01,-12.04 -7.2,-19.04 -22.29,-19.03 -10.24,0.01 -20.84,3.43 -27.85,9 l -10.07,-19.58 c 10.6,-7.55 26.23,-11.7 41.68,-11.71 29.47,-0.01 46.54,13.64 46.56,42.92 z m -28.01,24.64 -0.01,-9.88 -19.23,0.01 c -13.12,0.01 -17.25,4.86 -17.24,11.33 0,7.01 5.94,11.68 15.82,11.67 9.34,-0.01 17.43,-4.32 20.66,-13.13 z m -344.34,-80.26 a 2.544,2.544 0 0 1 -2.53,-2.55 c 0,-0.67 0.27,-1.31 0.74,-1.78 l 36.18,-36.16 c 2.23,-2.25 3.43,-5.33 3.3,-8.5 -0.29,-6.94 -5.87,-12.5 -12.81,-12.76 -3.16,-0.12 -6.22,1.06 -8.48,3.26 l -38.7,38.74 a 6.829,6.829 0 0 0 -1.96,5.08 7.89,7.89 0 0 0 2.35,5.35 7.36,7.36 0 0 0 10.39,0.39 l 38.69,-38.74 c 0.99,-0.99 0.99,-2.6 0,-3.59 -0.99,-0.99 -2.6,-0.99 -3.59,0 l -35.31,35.31 c -0.99,0.99 -2.6,0.99 -3.59,0 -0.99,-0.99 -0.99,-2.6 0,-3.59 l 35.31,-35.31 c 2.98,-2.98 7.81,-2.98 10.78,0 2.98,2.98 2.98,7.81 0,10.78 l -38.7,38.69 c -4.96,4.73 -12.82,4.55 -17.56,-0.39 a 12.926,12.926 0 0 1 -3.81,-8.79 c -0.12,-3.28 1.12,-6.46 3.44,-8.78 l 38.67,-38.7 c 3.24,-3.22 7.67,-4.95 12.23,-4.79 9.62,0.36 17.34,8.08 17.7,17.7 0.16,4.56 -1.57,8.99 -4.79,12.23 l -36.16,36.16 c -0.48,0.47 -1.12,0.74 -1.79,0.74 z"
   id="path14" fill="#fff"/>
</svg>
