<?xml version="1.0" encoding="utf-8"?>
<!-- Generator: Adobe Illustrator 24.3.0, SVG Export Plug-In . SVG Version: 6.00 Build 0)  -->
<svg version="1.1" id="Слой_1" xmlns="http://www.w3.org/2000/svg" xmlns:xlink="http://www.w3.org/1999/xlink" x="0px" y="0px"
	 viewBox="0 0 1080 1080" style="enable-background:new 0 0 1080 1080;" xml:space="preserve">
<style type="text/css">
	.st0{display:none;}
</style>
<path d="M137.66,525.42c-0.02-37.91,29.07-65.06,68.24-65.09c21.74-0.01,39.9,7.88,51.76,22.25l-18.68,17.26
	c-8.45-9.7-19.06-14.72-31.63-14.72c-23.54,0.01-40.24,16.56-40.23,40.27s16.74,40.24,40.27,40.23
	c12.58-0.01,23.18-5.05,31.62-14.93l18.7,17.24c-11.85,14.56-29.99,22.48-51.92,22.49C166.81,590.44,137.69,563.33,137.66,525.42z"
	/>
<path d="M317.19,551.54l-14.55,0.01l0.02,36.66l-28.03,0.02l-0.06-96.67l28.03-0.02l0.02,37.55l15.09-0.01l26.21-37.57l29.83-0.02
	L340,537.87l36.15,50.29l-33.06,0.02L317.19,551.54z"/>
<path d="M495.07,539.75c0.02,30.37-20.99,49.79-48.13,49.8c-12.04,0.01-21.92-3.76-29.12-11.66l0.03,45.1l-28.03,0.02l-0.08-131.53
	l26.77-0.02l0.01,11.14c7-8.45,17.42-12.59,30.36-12.6C474.02,489.99,495.06,509.38,495.07,539.75z M466.68,539.77
	c-0.01-16.71-10.62-26.77-24.63-26.76c-14.02,0.01-24.61,10.08-24.6,26.79c0.01,16.71,10.62,26.77,24.63,26.76
	C456.1,566.55,466.69,556.48,466.68,539.77z"/>
<path d="M608.1,547.59l-73.13,0.04c2.7,12.04,12.95,19.4,27.68,19.39c10.24-0.01,17.61-3.07,24.25-9.36l14.92,16.16
	c-8.98,10.25-22.45,15.65-39.88,15.66c-33.42,0.02-55.18-20.99-55.19-49.74c-0.02-28.93,22.07-49.79,51.54-49.81
	c28.39-0.02,50.32,19.02,50.34,50.1C608.64,542.2,608.28,545.25,608.1,547.59z M534.6,531.28l47.62-0.03
	c-1.98-12.22-11.15-20.12-23.73-20.11C545.73,511.15,536.57,518.88,534.6,531.28z"/>
<path d="M726.3,491.27l0.06,96.67l-28.03,0.02l-0.04-73.67l-40.25,0.02l0.04,73.67L630.23,588l-0.06-96.67L726.3,491.27z"/>
<path d="M795.88,551.25l-14.55,0.01l0.02,36.66l-28.03,0.02l-0.06-96.67l28.03-0.02l0.02,37.55l15.09-0.01l26.21-37.57l29.83-0.02
	l-33.75,46.38l36.15,50.29l-33.06,0.02L795.88,551.25z"/>
<path d="M950.94,532.65l0.03,55.16l-26.23,0.02l-0.01-12.04c-5.21,8.81-15.26,13.49-29.46,13.49
	c-22.64,0.01-36.12-12.56-36.13-29.27c-0.01-17.07,12.02-28.94,41.49-28.96l22.28-0.01c-0.01-12.04-7.2-19.04-22.29-19.03
	c-10.24,0.01-20.84,3.43-27.85,9l-10.07-19.58c10.6-7.55,26.23-11.7,41.68-11.71C933.85,489.71,950.93,503.36,950.94,532.65z
	 M922.93,557.28l-0.01-9.88l-19.23,0.01c-13.12,0.01-17.25,4.86-17.24,11.33c0,7.01,5.94,11.68,15.82,11.67
	C911.62,570.4,919.7,566.09,922.93,557.28z"/>
<path d="M587.81,467.98c-1.4-0.01-2.54-1.15-2.53-2.55c0-0.67,0.27-1.31,0.74-1.78l36.18-36.16c2.23-2.25,3.43-5.33,3.3-8.5
	c-0.29-6.94-5.87-12.5-12.81-12.76c-3.16-0.12-6.22,1.06-8.48,3.26l-38.7,38.74c-1.33,1.35-2.04,3.19-1.96,5.08
	c0.07,2.02,0.91,3.93,2.35,5.35c2.76,2.97,7.41,3.15,10.39,0.39l38.69-38.74c0.99-0.99,0.99-2.6,0-3.59c-0.99-0.99-2.6-0.99-3.59,0
	l-35.31,35.31c-0.99,0.99-2.6,0.99-3.59,0c-0.99-0.99-0.99-2.6,0-3.59l35.31-35.31c2.98-2.98,7.81-2.98,10.78,0
	c2.98,2.98,2.98,7.81,0,10.78l-38.7,38.69c-4.96,4.73-12.82,4.55-17.56-0.39c-2.35-2.33-3.71-5.48-3.81-8.79
	c-0.12-3.28,1.12-6.46,3.44-8.78l38.67-38.7c3.24-3.22,7.67-4.95,12.23-4.79c9.62,0.36,17.34,8.08,17.7,17.7
	c0.16,4.56-1.57,8.99-4.79,12.23l-36.16,36.16C589.12,467.72,588.48,467.99,587.81,467.98z"/>
<path class="st0" d="M164.69,737.55l9.87-21.93c10.61,7.72,26.42,13.1,41.52,13.09c17.25-0.01,24.25-5.76,24.25-13.49
	c-0.01-23.54-73.14-7.32-73.17-54.04c-0.01-21.38,17.23-39.18,52.98-39.2c15.81-0.01,31.99,3.75,43.67,11.11l-8.97,22.11
	c-11.68-6.64-23.72-9.87-34.87-9.86c-17.25,0.01-23.89,6.48-23.89,14.39c0.01,23.18,73.14,7.14,73.17,53.32
	c0.01,21.02-17.41,39-53.34,39.03C195.97,752.09,175.84,746.17,164.69,737.55z"/>
<path class="st0" d="M328.73,711.94l-13.47,13.3l0.02,24.62l-28.03,0.02l-0.08-133.33l28.03-0.02l0.05,75.47l40.95-38.84l33.42-0.02
	l-40.22,40.99l43.88,55.68l-33.96,0.02L328.73,711.94z"/>
<path class="st0" d="M465.08,651.66l0.02,25.87c-2.34-0.18-4.13-0.36-6.29-0.36c-15.45,0.01-25.69,8.46-25.68,26.97l0.03,45.64
	l-28.03,0.02l-0.06-96.67l26.77-0.02l0.01,12.76C438.67,656.53,450.16,651.67,465.08,651.66z"/>
<path class="st0" d="M575.09,709.27l-73.13,0.04c2.7,12.04,12.95,19.4,27.68,19.39c10.24-0.01,17.61-3.07,24.25-9.36l14.92,16.16
	c-8.98,10.25-22.45,15.65-39.88,15.66c-33.42,0.02-55.18-20.99-55.19-49.74c-0.02-28.93,22.07-49.79,51.54-49.8
	c28.39-0.02,50.32,19.02,50.34,50.1C575.62,703.88,575.26,706.93,575.09,709.27z M501.58,692.96l47.62-0.03
	c-1.98-12.22-11.15-20.12-23.73-20.11C512.71,672.83,503.55,680.56,501.58,692.96z"/>
<path class="st0" d="M699.61,701.29c0.02,30.37-20.99,49.79-48.13,49.8c-12.04,0.01-21.92-3.76-29.12-11.66l0.03,45.1l-28.03,0.02
	l-0.08-131.53l26.77-0.02l0.01,11.14c7-8.45,17.42-12.59,30.36-12.6C678.55,651.53,699.59,670.92,699.61,701.29z M671.22,701.3
	c-0.01-16.71-10.62-26.77-24.63-26.76s-24.61,10.08-24.6,26.79c0.01,16.71,10.62,26.77,24.63,26.76S671.23,718.02,671.22,701.3z"/>
<path class="st0" d="M759.81,711.67l-13.47,13.31l0.01,24.62l-28.03,0.02l-0.08-133.33l28.03-0.02l0.05,75.47l40.94-38.84
	l33.42-0.02l-40.22,40.99l43.88,55.68l-33.96,0.02L759.81,711.67z"/>
<path class="st0" d="M920.62,694.32l0.03,55.17l-26.23,0.02l-0.01-12.04c-5.21,8.81-15.26,13.49-29.46,13.49
	c-22.64,0.01-36.12-12.56-36.13-29.27c-0.01-17.07,12.02-28.94,41.49-28.96l22.28-0.01c-0.01-12.04-7.2-19.04-22.29-19.03
	c-10.24,0.01-20.84,3.43-27.85,9l-10.07-19.58c10.6-7.55,26.23-11.7,41.68-11.71C903.53,651.39,920.6,665.04,920.62,694.32z
	 M892.61,718.96l-0.01-9.88l-19.23,0.01c-13.12,0.01-17.25,4.86-17.24,11.33c0,7.01,5.94,11.68,15.82,11.67
	C881.29,732.08,889.38,727.77,892.61,718.96z"/>
<path class="st0" d="M548.27,638.7c-1.4-0.01-2.54-1.15-2.53-2.55c0-0.67,0.27-1.31,0.74-1.78l36.18-36.16
	c2.23-2.25,3.43-5.33,3.3-8.5c-0.29-6.94-5.87-12.5-12.81-12.76c-3.16-0.12-6.22,1.06-8.48,3.26l-38.7,38.74
	c-1.33,1.35-2.04,3.19-1.96,5.08c0.07,2.02,0.91,3.93,2.35,5.35c2.76,2.97,7.41,3.15,10.39,0.39l38.69-38.74
	c0.99-0.99,0.99-2.6,0-3.59c-0.99-0.99-2.6-0.99-3.59,0l-35.31,35.31c-0.99,0.99-2.6,0.99-3.59,0c-0.99-0.99-0.99-2.6,0-3.59
	l35.31-35.31c2.98-2.98,7.81-2.98,10.78,0c2.98,2.98,2.98,7.81,0,10.78l-38.7,38.69c-4.96,4.73-12.82,4.55-17.56-0.39
	c-2.35-2.33-3.71-5.48-3.81-8.79c-0.12-3.28,1.12-6.46,3.44-8.78l38.67-38.7c3.24-3.22,7.67-4.95,12.23-4.79
	c9.62,0.36,17.34,8.08,17.7,17.7c0.16,4.56-1.57,8.99-4.79,12.23l-36.16,36.16C549.58,638.43,548.94,638.7,548.27,638.7z"/>
</svg>
